<?xml version="1.0" encoding="UTF-8"?>
<svg id="Layer_1" data-name="Layer 1" xmlns="http://www.w3.org/2000/svg" viewBox="0 0 878.28 84.01">
  <path d="M56.71,5.44c0-3-2.49-5.44-5.55-5.44s-5.44,2.44-5.44,5.44c0,1.91.95,3.6,2.4,4.6-1.45,1-2.4,2.69-2.4,4.6s.97,3.56,2.44,4.54c-1.48.96-2.44,2.63-2.44,4.56s.98,3.57,2.46,4.55c-1.48.97-2.46,2.65-2.46,4.55s.95,3.6,2.4,4.6c-.59.41-1.1.93-1.49,1.53-.96-1.51-2.63-2.48-4.56-2.48s-3.58,1-4.55,2.51c-.97-1.51-2.65-2.51-4.55-2.51s-3.61.94-4.6,2.41c-.99-1.46-2.67-2.41-4.6-2.41s-3.56.99-4.54,2.48c-.96-1.51-2.63-2.48-4.56-2.48s-3.58,1-4.55,2.51c-.4-.61-.91-1.14-1.51-1.56,1.45-1,2.4-2.69,2.4-4.6s-.98-3.58-2.46-4.55c1.48-.97,2.46-2.65,2.46-4.55s-.96-3.6-2.44-4.56c1.47-.98,2.44-2.65,2.44-4.54s-.95-3.61-2.4-4.6c1.45-1,2.4-2.69,2.4-4.6,0-3-2.44-5.44-5.44-5.44S0,2.44,0,5.44c0,1.94.94,3.61,2.41,4.6-1.46.99-2.41,2.67-2.41,4.6s.99,3.56,2.48,4.54c-1.51.96-2.48,2.63-2.48,4.56s1,3.57,2.51,4.55c-1.51.97-2.51,2.65-2.51,4.55s.94,3.61,2.41,4.6c-1.46.99-2.41,2.67-2.41,4.6s.99,3.56,2.48,4.54c-1.51.96-2.48,2.63-2.48,4.56s1,3.57,2.51,4.55c-1.51.97-2.51,2.65-2.51,4.55s.94,3.61,2.41,4.6c-1.46.99-2.41,2.67-2.41,4.6s.99,3.56,2.48,4.54c-1.51.96-2.48,2.63-2.48,4.56,0,3,2.49,5.45,5.55,5.45s5.44-2.44,5.44-5.45c0-1.93-.96-3.6-2.44-4.56,1.47-.98,2.44-2.65,2.44-4.54s-.95-3.6-2.4-4.6c1.45-1,2.4-2.69,2.4-4.6s-.98-3.58-2.46-4.55c1.48-.97,2.46-2.65,2.46-4.55s-.96-3.6-2.44-4.56c.61-.41,1.14-.93,1.54-1.55.97,1.48,2.65,2.46,4.55,2.46s3.6-.96,4.56-2.44c.98,1.47,2.65,2.44,4.54,2.44s3.6-.95,4.6-2.4c1,1.45,2.69,2.4,4.6,2.4s3.58-.98,4.55-2.46c.97,1.48,2.65,2.46,4.55,2.46s3.6-.96,4.56-2.44c.4.6.92,1.12,1.53,1.53-1.48.96-2.44,2.63-2.44,4.56s.98,3.57,2.46,4.55c-1.48.97-2.46,2.65-2.46,4.55s.95,3.6,2.4,4.6c-1.45,1-2.4,2.69-2.4,4.6s.97,3.56,2.44,4.54c-1.48.96-2.44,2.63-2.44,4.56,0,3,2.44,5.45,5.44,5.45s5.55-2.44,5.55-5.45c0-1.93-.98-3.6-2.48-4.56,1.5-.98,2.48-2.65,2.48-4.54s-.94-3.61-2.41-4.6c1.46-.99,2.41-2.67,2.41-4.6s-1-3.58-2.51-4.55c1.51-.97,2.51-2.65,2.51-4.55s-.98-3.6-2.48-4.56c1.5-.98,2.48-2.65,2.48-4.54s-.94-3.61-2.41-4.6c1.46-.99,2.41-2.67,2.41-4.6s-1-3.58-2.51-4.55c1.51-.97,2.51-2.65,2.51-4.55s-.98-3.6-2.48-4.56c1.5-.98,2.48-2.65,2.48-4.54s-.94-3.61-2.41-4.6c1.46-.99,2.41-2.67,2.41-4.6Z"/>
  <path d="M170.03,75.76c-.96-1.6-2.87-2.64-4.78-2.64h0c-1.96-.08-3.55-1.57-3.62-3.47-.17-2.16-.98-3.74-2.5-4.85l-.09-.06c-1.09-.69-2.25-.79-3.18-.88-.46-.04-.89-.08-1.22-.18-.96-.43-1.57-1.31-1.93-2-.13-.34-.18-.8-.23-1.28-.1-.88-.22-1.97-.84-2.94-1.24-2.12-3.35-2.53-4.85-2.66-1.03-.07-1.89-.48-2.57-1.22-.59-.75-.88-1.64-.88-2.65v-.14c-.14-1.74-1.06-3.27-2.47-4.22.61-.4,1.13-.91,1.53-1.5,1.01,1.45,2.71,2.42,4.59,2.42s3.6-1,4.58-2.5c.78,1.23,2.02,2.09,3.45,2.34,2.07.48,4.28-.4,5.62-2.24l.06-.09c.65-1.02.78-2.08.88-2.93.06-.51.11-.95.26-1.29l.06-.17c.26-.86,1.04-1.65,2.02-2.03.3-.13.73-.16,1.23-.21.93-.08,2.1-.19,3.19-.98,1.99-1.41,2.8-3.82,2.07-6.15-.4-1.26-1.17-2.27-2.18-2.95,1.52-.97,2.52-2.65,2.52-4.56s-1.01-3.6-2.53-4.57c.03-.02.05-.03.08-.05,1.81-1.21,2.7-3.29,2.33-5.45-.38-2.19-1.95-3.89-4.11-4.42l-.14-.03c-.39-.07-.79-.1-1.2-.13-.25-.02-.5-.04-.77-.07l-.07-.02c-.44-.15-.95-.31-1.24-.54-.79-.58-1.31-1.44-1.47-2.44-.03-.19-.03-.37-.04-.56-.02-.47-.03-1.05-.23-1.72l-.12-.32c-.55-1.1-1.22-1.91-2.05-2.46-2-1.33-4.63-1.25-6.42.19-.49.38-.9.82-1.22,1.3-.97-1.48-2.65-2.46-4.55-2.46s-3.58.97-4.59,2.42c-1-1.46-2.7-2.42-4.62-2.42s-3.58.98-4.55,2.46c-.97-1.48-2.65-2.46-4.55-2.46s-3.57.98-4.55,2.46c-.97-1.48-2.65-2.46-4.55-2.46-3.01,0-5.55,2.49-5.55,5.44,0,1.85,1.01,3.55,2.49,4.58-1.5,1-2.49,2.7-2.49,4.63s1.03,3.57,2.55,4.55c-1.52.98-2.55,2.67-2.55,4.55s1.03,3.57,2.55,4.55c-1.52.98-2.55,2.67-2.55,4.55s1.01,3.55,2.49,4.58c-1.5,1-2.49,2.7-2.49,4.63s1.03,3.57,2.55,4.55c-1.52.98-2.55,2.67-2.55,4.55s1.03,3.57,2.55,4.55c-1.52.98-2.55,2.67-2.55,4.55s1.01,3.55,2.49,4.58c-1.5,1-2.49,2.7-2.49,4.63s1.03,3.57,2.55,4.55c-1.52.98-2.55,2.67-2.55,4.55,0,2.95,2.54,5.45,5.55,5.45s5.44-2.44,5.44-5.45c0-1.9-.98-3.58-2.46-4.55,1.48-.97,2.46-2.65,2.46-4.55s-.96-3.62-2.42-4.62c1.45-1.01,2.42-2.71,2.42-4.59s-.98-3.58-2.46-4.55c1.48-.97,2.46-2.65,2.46-4.55s-.98-3.58-2.46-4.55c.62-.41,1.15-.94,1.56-1.56.47.73,1.12,1.35,1.92,1.79,1.02.56,2.04.64,2.86.7.46.04.87.07,1.22.17.84.37,1.56,1.1,1.94,2,.13.29.18.77.23,1.28.08.81.18,1.82.73,2.83,1.04,1.78,2.81,2.77,4.9,2.77h0c1.93.07,3.5,1.71,3.5,3.66,0,2.08,1.26,4.06,3.2,5.03l.24.1c.62.21,1.15.27,1.61.33.17.02.34.04.52.07l.3.02c.43,0,.92.13,1.32.32.86.47,1.48,1.22,1.76,2.11l.04.12c.13.34.18.74.23,1.2.11.92.25,2.16,1.22,3.3.63.93,1.62,1.41,2.32,1.69l.18.06c.55.16,1.04.2,1.42.23.25.02.46.04.58.08l.3.07c.94.15,1.82.65,2.29,1.33l.07.09c.27.33.45.7.5,1.02l.07.28c.08.24.12.62.16.98.03.28.06.56.1.79.33,2.14,1.95,3.85,4.09,4.34.44.11.89.17,1.33.17,1.64,0,3.2-.77,4.28-2.18,1.39-1.8,1.58-4.11.5-6.03l-.03-.05ZM137.77,36.51c-1.88,0-3.54.98-4.52,2.46-.12-.19-.26-.39-.41-.57l-.07-.08c-1.44-1.6-3.68-2.18-5.9-1.49-1.17.4-2.12,1.17-2.75,2.18-.4-.62-.92-1.15-1.52-1.56,1.45-1.01,2.42-2.71,2.42-4.59s-.98-3.58-2.46-4.55c1.48-.97,2.46-2.65,2.46-4.55s-.98-3.58-2.46-4.55c1.48-.97,2.46-2.65,2.46-4.55s-.96-3.62-2.42-4.62c.6-.42,1.13-.96,1.53-1.58.98,1.52,2.67,2.55,4.55,2.55s3.57-1.03,4.55-2.55c.98,1.52,2.67,2.55,4.55,2.55s3.64-.99,4.63-2.49c1.02,1.48,2.73,2.49,4.58,2.49s3.56-1.02,4.54-2.54c.98,1.57,2.66,2.54,4.56,2.54s3.51,1.47,3.66,3.36c.12,1.53.5,3.45,2.48,4.83-1.49.97-2.48,2.66-2.48,4.57s.99,3.59,2.48,4.56c-.88.58-1.6,1.42-2.02,2.44-.29.73-.46,1.62-.46,2.43,0,.43-.13.92-.36,1.38-.42.84-1.21,1.52-2.12,1.82-.32.11-.71.15-1.17.2-.95.1-2.13.22-3.31,1.08-.5.38-.91.84-1.24,1.36-.97-1.51-2.65-2.51-4.55-2.51s-3.59.96-4.59,2.43c-.99-1.48-2.67-2.43-4.62-2.43Z"/>
  <path d="M229.29,0c-1.91,0-3.6.95-4.6,2.4-1-1.45-2.69-2.4-4.6-2.4s-3.56.97-4.54,2.44c-.96-1.48-2.63-2.44-4.56-2.44s-3.58.98-4.55,2.46c-.97-1.48-2.65-2.46-4.55-2.46s-3.6.95-4.6,2.4c-1-1.45-2.69-2.4-4.6-2.4s-3.56.97-4.54,2.44c-.96-1.48-2.63-2.44-4.56-2.44s-3.58.98-4.55,2.46c-.97-1.48-2.65-2.46-4.55-2.46-3.06,0-5.55,2.44-5.55,5.44s2.44,5.55,5.55,5.55c1.9,0,3.58-1,4.55-2.51.97,1.51,2.65,2.51,4.55,2.51s3.6-.98,4.56-2.48c.98,1.5,2.65,2.48,4.54,2.48s3.61-.94,4.6-2.41c.39.57.88,1.07,1.46,1.46-1.46.99-2.41,2.67-2.41,4.6s.99,3.56,2.48,4.54c-1.51.96-2.48,2.63-2.48,4.56s1,3.57,2.51,4.55c-1.51.97-2.51,2.65-2.51,4.55s.94,3.61,2.41,4.6c-1.46.99-2.41,2.67-2.41,4.6s.99,3.56,2.48,4.54c-1.51.96-2.48,2.63-2.48,4.56s1,3.57,2.51,4.55c-1.51.97-2.51,2.65-2.51,4.55s.94,3.61,2.41,4.6c-1.46.99-2.41,2.67-2.41,4.6s.99,3.56,2.48,4.54c-1.51.96-2.48,2.63-2.48,4.56,0,3,2.49,5.45,5.55,5.45s5.44-2.44,5.44-5.45c0-1.93-.96-3.6-2.44-4.56,1.47-.98,2.44-2.65,2.44-4.54s-.95-3.6-2.4-4.6c1.45-1,2.4-2.69,2.4-4.6s-.98-3.58-2.46-4.55c1.48-.97,2.46-2.65,2.46-4.55s-.96-3.6-2.44-4.56c1.47-.98,2.44-2.65,2.44-4.54s-.95-3.6-2.4-4.6c1.45-1,2.4-2.69,2.4-4.6s-.98-3.58-2.46-4.55c1.48-.97,2.46-2.65,2.46-4.55s-.96-3.6-2.44-4.56c1.47-.98,2.44-2.65,2.44-4.54s-.95-3.61-2.4-4.6c.6-.41,1.11-.94,1.51-1.56.97,1.51,2.65,2.51,4.55,2.51s3.6-.98,4.56-2.48c.98,1.5,2.65,2.48,4.54,2.48s3.61-.94,4.6-2.41c.99,1.46,2.67,2.41,4.6,2.41,3,0,5.44-2.49,5.44-5.55s-2.44-5.44-5.44-5.44Z"/>
  <path d="M246.14,8.49c.97,1.51,2.65,2.51,4.55,2.51s3.6-.98,4.56-2.48c.98,1.5,2.64,2.48,4.54,2.48s3.61-.94,4.61-2.41c.99,1.46,2.67,2.41,4.6,2.41s3.58-1,4.55-2.5c.97,1.51,2.65,2.5,4.55,2.5,3.05,0,5.45-2.44,5.45-5.55s-2.39-5.44-5.45-5.44c-1.9,0-3.57.98-4.55,2.46-.97-1.48-2.65-2.46-4.55-2.46s-3.6.95-4.6,2.4c-1-1.45-2.69-2.4-4.61-2.4s-3.56.97-4.54,2.44c-.96-1.48-2.63-2.44-4.56-2.44s-3.57.98-4.55,2.46c-.97-1.48-2.65-2.46-4.55-2.46-3.06,0-5.55,2.44-5.55,5.44,0,1.94.94,3.61,2.41,4.6-1.46.99-2.41,2.67-2.41,4.6s.99,3.56,2.48,4.54c-1.51.96-2.48,2.63-2.48,4.56s1,3.57,2.51,4.55c-1.51.97-2.51,2.65-2.51,4.55s.94,3.61,2.41,4.6c-1.46.99-2.41,2.67-2.41,4.6s.99,3.56,2.48,4.54c-1.51.96-2.48,2.63-2.48,4.56s1,3.57,2.51,4.55c-1.51.97-2.51,2.65-2.51,4.55s.94,3.61,2.41,4.6c-1.46.99-2.41,2.67-2.41,4.6s.99,3.56,2.48,4.54c-1.51.96-2.48,2.63-2.48,4.56,0,3,2.49,5.45,5.55,5.45,1.9,0,3.58-.98,4.55-2.46.97,1.48,2.65,2.46,4.55,2.46s3.6-.96,4.56-2.44c.98,1.47,2.64,2.44,4.54,2.44s3.61-.95,4.61-2.4c1,1.45,2.69,2.4,4.6,2.4s3.58-.98,4.55-2.46c.97,1.48,2.65,2.46,4.55,2.46,3.05,0,5.45-2.39,5.45-5.45s-2.34-5.44-5.45-5.44c-1.92,0-3.58.95-4.55,2.41-.97-1.46-2.63-2.41-4.55-2.41s-3.61.93-4.6,2.36c-.99-1.43-2.67-2.36-4.61-2.36s-3.57.94-4.54,2.39c-.96-1.46-2.61-2.39-4.56-2.39s-3.58.95-4.55,2.41c-.4-.61-.93-1.13-1.54-1.53,1.47-.98,2.44-2.65,2.44-4.54s-.95-3.6-2.4-4.6c1.45-1,2.4-2.69,2.4-4.6s-.98-3.58-2.46-4.55c1.48-.97,2.46-2.65,2.46-4.55s-.96-3.6-2.44-4.56c.61-.41,1.14-.93,1.54-1.55.97,1.48,2.65,2.46,4.55,2.46s3.6-.96,4.56-2.43c.98,1.47,2.64,2.43,4.54,2.43s3.61-.95,4.61-2.4c1,1.45,2.69,2.4,4.6,2.4,3,0,5.45-2.44,5.45-5.44s-2.44-5.55-5.45-5.55c-1.94,0-3.61.94-4.6,2.41-.99-1.46-2.67-2.41-4.61-2.41s-3.56.99-4.54,2.48c-.96-1.51-2.63-2.48-4.56-2.48s-3.57,1-4.55,2.51c-.4-.61-.91-1.14-1.51-1.56,1.45-1,2.4-2.69,2.4-4.6s-.98-3.58-2.46-4.55c1.48-.97,2.46-2.65,2.46-4.55s-.96-3.6-2.44-4.56c1.47-.98,2.44-2.65,2.44-4.54s-.95-3.61-2.4-4.6c.6-.41,1.11-.94,1.51-1.56Z"/>
  <path d="M344.71,5.44c0-3-2.49-5.44-5.55-5.44s-5.45,2.44-5.45,5.44c0,1.88.97,3.58,2.42,4.59-1.46,1-2.42,2.7-2.42,4.62s.98,3.57,2.46,4.55c-1.48.97-2.46,2.65-2.46,4.55s.98,3.57,2.46,4.55c-1.48.97-2.46,2.65-2.46,4.55s.97,3.58,2.42,4.59c-1.46,1-2.42,2.7-2.42,4.62s.98,3.57,2.46,4.55c-1.48.97-2.46,2.65-2.46,4.55s.98,3.57,2.46,4.55c-.62.41-1.14.93-1.55,1.55-.83-1.31-2.16-2.2-3.71-2.42-.38-.06-.73-.08-1.03-.08-.28,0-.53-.02-.67-.06-.48-.16-.97-.41-1.47-.73-.71-.59-1.17-1.44-1.23-2.28l-.02-.16c-.03-.19-.05-.37-.07-.56-.06-.5-.12-1.07-.33-1.7l-.05-.14c-.43-1-1.03-1.81-1.85-2.46l-.16-.11s-.02-.02-.04-.02c.21-.14.42-.3.61-.48,1.6-1.45,2.17-3.65,1.49-5.74-.68-2.11-2.45-3.56-4.66-3.79-1.22-.09-2.12-.26-2.8-.78-.79-.73-1.26-1.6-1.33-2.47l-.02-.16c-.03-.15-.03-.29-.04-.43-.03-.47-.07-1.1-.4-1.83-.39-1.08-1.11-1.98-2.01-2.49-.02-.01-.03-.02-.05-.04.25-.17.5-.36.72-.58,1.63-1.47,2.19-3.7,1.46-5.81-.71-2.05-2.46-3.43-4.57-3.61l-.25-.03c-1.32-.19-1.99-.3-2.57-.82l-.15-.12c-.69-.5-1.15-1.4-1.23-2.39l-.02-.16c-.03-.18-.05-.35-.07-.52-.06-.47-.12-1-.33-1.62-.29-.89-.92-1.7-1.97-2.54-1.1-.8-2.22-.9-3.13-.99-.47-.04-.88-.08-1.19-.21l-.13-.05c-.76-.25-1.55-.98-2.01-1.82-.19-.38-.27-.81-.35-1.4,0-.76-.03-1.68-.54-2.68-1-1.92-3-3.04-5.21-2.91-2.19.12-4.03,1.44-4.78,3.38-.8,1.93-.38,4.24,1.1,5.87l.22.2c.24.19.48.36.71.52-1.5,1-2.49,2.7-2.49,4.63s1.03,3.57,2.55,4.55c-1.52.98-2.55,2.67-2.55,4.55s1.03,3.57,2.55,4.55c-1.52.98-2.55,2.67-2.55,4.55s1.01,3.55,2.49,4.58c-1.5,1-2.49,2.7-2.49,4.63s1.03,3.57,2.55,4.55c-1.52.98-2.55,2.67-2.55,4.55s1.03,3.57,2.55,4.55c-1.52.98-2.55,2.67-2.55,4.55s1.01,3.55,2.49,4.58c-1.5,1-2.49,2.7-2.49,4.63s1.03,3.57,2.55,4.55c-1.52.98-2.55,2.67-2.55,4.55,0,2.95,2.54,5.45,5.55,5.45s5.45-2.44,5.45-5.45c0-1.9-.98-3.58-2.46-4.55,1.48-.97,2.46-2.65,2.46-4.55s-.96-3.62-2.42-4.62c1.45-1.01,2.42-2.71,2.42-4.59s-.98-3.58-2.46-4.55c1.48-.97,2.46-2.65,2.46-4.55s-.98-3.58-2.46-4.55c1.48-.97,2.46-2.65,2.46-4.55s-.96-3.62-2.42-4.62c1.45-1.01,2.42-2.71,2.42-4.59s-.98-3.58-2.46-4.55c1.48-.97,2.46-2.65,2.46-4.55s-.98-3.58-2.46-4.55c.61-.4,1.14-.93,1.55-1.54.62.93,1.5,1.66,2.56,2.09l.1.04c.67.22,1.32.27,1.89.31.45.03.88.06,1.12.17l.14.06c1.43.5,2.39,1.88,2.39,3.43,0,1.84.96,3.54,2.51,4.54-1.93,1.22-2.85,3.45-2.34,5.73.53,2.36,2.4,4.04,4.7,4.26,1.59.21,2.42.39,3.18,1.08h0c.65.59,1.04,1.6,1.04,2.7,0,1.87.96,3.54,2.54,4.53-1.9,1.22-2.82,3.45-2.34,5.71.49,2.3,2.28,3.99,4.5,4.28.39.06.75.08,1.08.09.28,0,.59.02.8.09.42.12.84.37,1.42.85h.01c.75.62,1.19,1.61,1.19,2.65,0,1.87.91,3.55,2.44,4.57-.04.02-.08.05-.12.07-1.75,1.22-2.6,3.31-2.21,5.46.39,2.17,1.92,3.85,4,4.39l.16.03c.38.06.76.1,1.14.13.28.02.56.04.84.09.37.06.85.27,1.13.5l.16.12c.81.51,1.35,1.29,1.48,2.16.05.28.07.58.09.88.03.41.07.82.13,1.2l.05.2c.4,1.41,1.38,2.35,1.98,2.82,1.91,1.43,4.54,1.49,6.42.15,1.98-1.34,2.81-3.68,2.11-5.99-.39-1.27-1.18-2.32-2.21-3.01,1.52-.97,2.53-2.65,2.53-4.56s-.95-3.63-2.43-4.62c1.46-1,2.43-2.69,2.43-4.59s-1-3.58-2.51-4.55c1.51-.97,2.51-2.65,2.51-4.55s-1-3.58-2.51-4.55c1.51-.97,2.51-2.65,2.51-4.55s-.95-3.63-2.43-4.62c1.46-1,2.43-2.69,2.43-4.59s-1-3.58-2.51-4.55c1.51-.97,2.51-2.65,2.51-4.55s-1-3.58-2.51-4.55c1.51-.97,2.51-2.65,2.51-4.55s-.95-3.63-2.43-4.62c1.47-1,2.43-2.68,2.43-4.59ZM334.62,66.4c-.38-.61-.88-1.13-1.49-1.58.13-.09.26-.2.39-.3.44-.36.81-.77,1.11-1.23.4.61.91,1.14,1.51,1.55-.6.41-1.12.94-1.52,1.56Z"/>
  <path d="M405.56,60.26c0-1.9-1-3.57-2.5-4.55.12-.08.23-.16.35-.24h0c1.84-1.38,2.55-3.73,1.79-5.99-.76-2.29-2.8-3.76-5.12-3.76h0c-1.99-.08-3.62-1.67-3.62-3.55v-.14c-.17-2.12-1.1-3.78-2.71-4.8l-.16-.09c-1.97-.98-4.38-.77-5.99.52-.5.38-.91.84-1.24,1.36-.97-1.51-2.65-2.51-4.55-2.51s-3.59.96-4.59,2.43c-.99-1.48-2.67-2.43-4.62-2.43s-3.58,1-4.55,2.51c-.98-1.56-2.65-2.51-4.54-2.51s-3.58-1.57-3.65-3.44c0-2.02-.85-3.69-2.45-4.77,1.48-.98,2.45-2.65,2.45-4.55s-1-3.61-2.5-4.58c.6-.39,1.12-.91,1.52-1.52.75-1.06.9-2.2,1.02-3.12.06-.5.12-.94.27-1.31.36-.94,1.15-1.71,2.01-1.98l.17-.06c.33-.14.76-.19,1.26-.26.93-.12,2.09-.27,3.17-1.05l.03-.02c.52-.39.94-.86,1.28-1.37.99,1.5,2.66,2.51,4.52,2.51s3.64-.99,4.63-2.49c1.02,1.48,2.73,2.49,4.58,2.49s3.56-1.02,4.54-2.54c.98,1.57,2.66,2.54,4.56,2.54s3.58,1.54,3.66,3.59c.19,2.24,1.12,3.86,2.76,4.83l.11.06c1.93.96,4.21.78,5.99-.52,1.7-1.31,2.45-3.53,1.93-5.67-.52-2.12-2.15-3.67-4.28-4.05-.38-.06-.76-.1-1.14-.13-.24-.02-.47-.04-.71-.07l-.09-.03c-.44-.15-.95-.31-1.24-.54-.79-.58-1.31-1.44-1.46-2.44-.03-.19-.03-.37-.04-.56-.01-.47-.03-1.05-.23-1.72l-.12-.32c-.55-1.1-1.22-1.91-2.04-2.45-2-1.33-4.63-1.25-6.42.19-.49.38-.9.82-1.22,1.3-.97-1.48-2.65-2.46-4.55-2.46s-3.58.97-4.59,2.42c-1-1.46-2.7-2.42-4.62-2.42s-3.6.99-4.57,2.49c-.98-1.54-2.65-2.49-4.53-2.49-2.11,0-4.07,1.28-4.93,3.2-.48.88-.52,1.78-.52,2.43-.09.56-.25,1.09-.46,1.52-.45.89-1.16,1.54-1.97,1.81-.38.12-.78.16-1.24.21-.94.1-2.1.22-3.25,1.06-1.75,1.3-2.54,3.45-2.04,5.61.33,1.45,1.17,2.63,2.3,3.37-1.52.98-2.54,2.67-2.54,4.54s1.04,3.58,2.57,4.56c-.1.07-.2.14-.29.22-1.76,1.3-2.54,3.45-2.04,5.61.5,2.15,2.11,3.73,4.25,4.13.38.06.73.08,1.03.09.28,0,.52.02.67.06l.32.08c.38.05.75.22,1.16.55.83.6,1.32,1.38,1.46,2.29.03.19.04.38.04.56.03.54.06,1.2.38,1.92.36,1.15,1.06,2.09,2.01,2.73,2,1.33,4.63,1.25,6.42-.19.49-.38.9-.82,1.22-1.3.97,1.48,2.65,2.46,4.55,2.46s3.62-.96,4.62-2.42c1.01,1.45,2.71,2.42,4.59,2.42s3.61-1,4.58-2.5c.79,1.23,2.05,2.09,3.57,2.36.36.06.72.09,1.07.12.23.02.46.04.67.07.52.16,1,.39,1.5.64.68.6,1.14,1.45,1.29,2.36l.07.3c.04.12.06.34.08.58.03.39.07.87.25,1.5.34,1.04,1.13,2.02,2.08,2.66.04.03.07.05.11.08-1.51.97-2.51,2.66-2.51,4.58s.97,3.58,2.43,4.59c-.86.58-1.55,1.4-1.96,2.38l-.05.13c-.3.89-.42,1.62-.42,2.44,0,.43-.12.83-.35,1.18l-.14.25c-.32.7-1.12,1.37-1.99,1.65-.34.11-.74.15-1.2.2-.87.08-1.95.18-3.1.92-.6.42-1.09.93-1.46,1.52-.98-1.45-2.64-2.4-4.51-2.4s-3.58.97-4.59,2.42c-1-1.46-2.7-2.42-4.62-2.42s-3.59.99-4.57,2.48c-.98-1.54-2.63-2.48-4.46-2.48h0c-1.98-.08-3.66-1.7-3.72-3.55,0-2.17-.98-3.93-2.82-5-1.87-1.02-4.32-.81-5.91.46-1.76,1.3-2.54,3.45-2.04,5.61.5,2.15,2.11,3.73,4.25,4.13.38.06.76.1,1.14.13.24.02.49.04.74.07.45.14.9.34,1.36.61.76.57,1.25,1.42,1.41,2.4.03.16.03.31.04.47.03.5.06,1.19.38,1.96.38,1.08,1.09,2.01,2.01,2.63,1.99,1.33,4.61,1.25,6.4-.18.5-.37.92-.81,1.25-1.3.98,1.47,2.65,2.45,4.54,2.45s3.62-.96,4.62-2.42c1.01,1.45,2.71,2.42,4.59,2.42s3.58-.98,4.55-2.46c.74,1.17,1.89,2,3.26,2.3,2.07.48,4.36-.3,5.73-2.02.82-1.13.95-2.3,1.05-3.15.04-.41.08-.76.18-1.03l.04-.12c.3-1.04.94-1.82,1.86-2.24l.1-.05c.38-.2.89-.27,1.49-.34.89-.11,2-.25,3.04-.95,2.01-1.34,2.85-3.73,2.13-6.08-.38-1.25-1.15-2.29-2.15-2.99,1.49-1,2.47-2.7,2.47-4.62Z"/>
  <path d="M420.01,8.49c.97,1.51,2.65,2.51,4.55,2.51s3.6-.98,4.56-2.48c.98,1.5,2.64,2.48,4.54,2.48s3.61-.94,4.61-2.41c.99,1.46,2.67,2.41,4.6,2.41s3.58-1,4.55-2.5c.97,1.51,2.65,2.5,4.55,2.5,3.05,0,5.45-2.44,5.45-5.55s-2.39-5.44-5.45-5.44c-1.9,0-3.57.98-4.55,2.46-.97-1.48-2.65-2.46-4.55-2.46s-3.6.95-4.6,2.4c-1-1.45-2.69-2.4-4.61-2.4s-3.56.97-4.54,2.44c-.96-1.48-2.63-2.44-4.56-2.44s-3.57.98-4.55,2.46c-.97-1.48-2.65-2.46-4.55-2.46-3.06,0-5.55,2.44-5.55,5.44,0,1.94.94,3.61,2.41,4.6-1.46.99-2.41,2.67-2.41,4.6s.99,3.56,2.48,4.54c-1.51.96-2.48,2.63-2.48,4.56s1,3.57,2.51,4.55c-1.51.97-2.51,2.65-2.51,4.55s.94,3.61,2.41,4.6c-1.46.99-2.41,2.67-2.41,4.6s.99,3.56,2.48,4.54c-1.51.96-2.48,2.63-2.48,4.56s1,3.57,2.51,4.55c-1.51.97-2.51,2.65-2.51,4.55s.94,3.61,2.41,4.6c-1.46.99-2.41,2.67-2.41,4.6s.99,3.56,2.48,4.54c-1.51.96-2.48,2.63-2.48,4.56,0,3,2.49,5.45,5.55,5.45,1.9,0,3.58-.98,4.55-2.46.97,1.48,2.65,2.46,4.55,2.46s3.6-.96,4.56-2.44c.98,1.47,2.64,2.44,4.54,2.44s3.61-.95,4.61-2.4c1,1.45,2.69,2.4,4.6,2.4s3.58-.98,4.55-2.46c.97,1.48,2.65,2.46,4.55,2.46,3.05,0,5.45-2.39,5.45-5.45s-2.34-5.44-5.45-5.44c-1.92,0-3.58.95-4.55,2.41-.97-1.46-2.63-2.41-4.55-2.41s-3.61.93-4.6,2.36c-.99-1.43-2.67-2.36-4.61-2.36s-3.57.94-4.54,2.39c-.96-1.46-2.61-2.39-4.56-2.39s-3.58.95-4.55,2.41c-.4-.61-.93-1.13-1.54-1.53,1.47-.98,2.44-2.65,2.44-4.54s-.95-3.6-2.4-4.6c1.45-1,2.4-2.69,2.4-4.6s-.98-3.58-2.46-4.55c1.48-.97,2.46-2.65,2.46-4.55s-.96-3.6-2.44-4.56c.61-.41,1.14-.93,1.54-1.55.97,1.48,2.65,2.46,4.55,2.46s3.6-.96,4.56-2.43c.98,1.47,2.64,2.43,4.54,2.43s3.61-.95,4.61-2.4c1,1.45,2.69,2.4,4.6,2.4,3,0,5.45-2.44,5.45-5.44s-2.44-5.55-5.45-5.55c-1.94,0-3.61.94-4.6,2.41-.99-1.46-2.67-2.41-4.61-2.41s-3.56.99-4.54,2.48c-.96-1.51-2.63-2.48-4.56-2.48s-3.57,1-4.55,2.51c-.4-.61-.91-1.14-1.51-1.56,1.45-1,2.4-2.69,2.4-4.6s-.98-3.58-2.46-4.55c1.48-.97,2.46-2.65,2.46-4.55s-.96-3.6-2.44-4.56c1.47-.98,2.44-2.65,2.44-4.54s-.95-3.61-2.4-4.6c.6-.41,1.11-.94,1.51-1.56Z"/>
  <path d="M561.34,23.75c0-1.91-1.01-3.6-2.53-4.57.03-.02.05-.03.08-.05,1.81-1.21,2.7-3.29,2.33-5.45-.38-2.19-1.95-3.89-4.11-4.42l-.14-.03c-.39-.07-.79-.1-1.2-.13-.25-.02-.5-.04-.77-.07l-.07-.02c-.44-.15-.95-.31-1.24-.54-.79-.58-1.31-1.43-1.46-2.44-.03-.18-.03-.37-.04-.56-.01-.47-.03-1.05-.23-1.73l-.12-.32c-.55-1.1-1.22-1.91-2.05-2.46-2-1.33-4.63-1.25-6.42.19-.49.38-.9.82-1.22,1.3-.97-1.48-2.65-2.46-4.55-2.46s-3.58.97-4.59,2.42c-1-1.46-2.7-2.42-4.62-2.42s-3.57.98-4.55,2.46c-.97-1.48-2.65-2.46-4.55-2.46s-3.57.98-4.55,2.46c-.97-1.48-2.65-2.46-4.55-2.46-3.01,0-5.55,2.49-5.55,5.44,0,1.85,1.01,3.55,2.49,4.58-1.5,1-2.49,2.7-2.49,4.63s1.03,3.57,2.55,4.55c-1.52.98-2.55,2.67-2.55,4.55s1.03,3.57,2.55,4.55c-1.52.98-2.55,2.67-2.55,4.55s1.01,3.55,2.49,4.58c-1.5,1-2.49,2.7-2.49,4.63s1.03,3.57,2.55,4.55c-1.52.98-2.55,2.67-2.55,4.55s1.03,3.57,2.55,4.55c-1.52.98-2.55,2.67-2.55,4.55s1.01,3.55,2.49,4.58c-1.5,1-2.49,2.7-2.49,4.63s1.03,3.57,2.55,4.55c-1.52.98-2.55,2.67-2.55,4.55,0,2.95,2.54,5.45,5.55,5.45s5.45-2.44,5.45-5.45c0-1.9-.98-3.58-2.46-4.55,1.48-.97,2.46-2.65,2.46-4.55s-.96-3.62-2.42-4.62c1.45-1.01,2.42-2.71,2.42-4.59s-.98-3.58-2.46-4.55c1.48-.97,2.46-2.65,2.46-4.55s-.98-3.58-2.46-4.55c.62-.41,1.15-.94,1.56-1.56.98,1.48,2.65,2.46,4.55,2.46s3.58-.98,4.55-2.46c.97,1.48,2.65,2.46,4.55,2.46s3.62-.96,4.62-2.42c1.01,1.45,2.71,2.42,4.59,2.42s3.6-1,4.58-2.5c.79,1.23,2.02,2.08,3.46,2.34,2.08.48,4.28-.4,5.62-2.24l.06-.09c.65-1.03.78-2.08.88-2.93.06-.51.11-.95.25-1.29l.06-.16c.27-.86,1.04-1.65,1.98-2.01.35-.13.79-.18,1.3-.23.99-.1,2.23-.22,3.42-1.11l.04-.03c1.84-1.46,2.52-3.87,1.73-6.14-.41-1.18-1.17-2.14-2.14-2.79,1.52-.97,2.52-2.65,2.52-4.56ZM552.82,28.31c-.88.58-1.59,1.42-2.01,2.43-.29.73-.46,1.62-.46,2.44,0,.43-.13.92-.36,1.38-.42.84-1.21,1.52-2.12,1.82-.32.11-.71.15-1.17.2-.95.1-2.14.22-3.31,1.08-.5.38-.91.84-1.24,1.36-.97-1.51-2.65-2.51-4.55-2.51s-3.59.96-4.59,2.43c-.99-1.48-2.67-2.43-4.62-2.43s-3.57,1-4.55,2.51c-.97-1.51-2.65-2.51-4.55-2.51s-3.57,1-4.55,2.5c-.4-.62-.92-1.16-1.53-1.57,1.45-1.01,2.42-2.71,2.42-4.59s-.98-3.58-2.46-4.55c1.48-.97,2.46-2.65,2.46-4.55s-.98-3.58-2.46-4.55c1.48-.97,2.46-2.65,2.46-4.55s-.96-3.62-2.42-4.62c.6-.42,1.13-.96,1.53-1.58.98,1.52,2.67,2.55,4.55,2.55s3.57-1.03,4.55-2.55c.98,1.52,2.67,2.55,4.55,2.55s3.64-.99,4.63-2.49c1.02,1.48,2.73,2.49,4.58,2.49s3.56-1.02,4.54-2.53c.98,1.57,2.66,2.53,4.56,2.53s3.52,1.47,3.66,3.36c.12,1.53.5,3.45,2.48,4.83-1.49.97-2.48,2.66-2.48,4.57s.99,3.59,2.47,4.56Z"/>
  <path d="M630.03,5.44c0-3-2.44-5.44-5.45-5.44s-5.55,2.44-5.55,5.44c0,1.94.94,3.61,2.41,4.6-1.46.99-2.41,2.67-2.41,4.6s.99,3.56,2.48,4.54c-1.51.96-2.48,2.63-2.48,4.56s1,3.57,2.51,4.55c-1.51.97-2.51,2.65-2.51,4.55s.94,3.61,2.41,4.6c-1.46.99-2.41,2.67-2.41,4.6s.99,3.56,2.48,4.54c-1.51.96-2.48,2.63-2.48,4.56s1,3.57,2.51,4.55c-1.51.97-2.51,2.65-2.51,4.55s.94,3.61,2.41,4.6c-1.46.99-2.41,2.67-2.41,4.6s.99,3.56,2.48,4.54c-1.51.96-2.48,2.63-2.48,4.56,0,3,2.49,5.45,5.55,5.45s5.45-2.44,5.45-5.45c0-1.93-.96-3.6-2.44-4.56,1.47-.98,2.44-2.65,2.44-4.54s-.95-3.6-2.4-4.6c1.45-1,2.4-2.69,2.4-4.6s-.98-3.58-2.46-4.55c1.48-.97,2.46-2.65,2.46-4.55s-.96-3.6-2.44-4.56c1.47-.98,2.44-2.65,2.44-4.54s-.95-3.6-2.4-4.6c1.45-1,2.4-2.69,2.4-4.6s-.98-3.58-2.46-4.55c1.48-.97,2.46-2.65,2.46-4.55s-.96-3.6-2.44-4.56c1.47-.98,2.44-2.65,2.44-4.54s-.95-3.61-2.4-4.6c1.45-1,2.4-2.69,2.4-4.6Z"/>
  <path d="M694.61,75.76c-.96-1.6-2.87-2.64-4.78-2.64h0c-1.96-.08-3.55-1.57-3.62-3.47-.17-2.16-.98-3.74-2.5-4.85l-.09-.06c-1.09-.69-2.25-.79-3.18-.88-.46-.04-.89-.08-1.22-.18-.96-.43-1.57-1.31-1.93-2-.13-.34-.18-.8-.23-1.28-.1-.88-.22-1.97-.84-2.94-1.24-2.12-3.35-2.53-4.85-2.66-1.03-.07-1.89-.48-2.57-1.22-.59-.75-.88-1.64-.88-2.65v-.14c-.14-1.74-1.06-3.27-2.47-4.22.61-.4,1.13-.91,1.53-1.5,1.01,1.45,2.71,2.42,4.59,2.42s3.6-.99,4.58-2.5c.78,1.23,2.02,2.08,3.46,2.34,2.07.48,4.28-.4,5.62-2.24l.06-.09c.65-1.02.78-2.08.88-2.93.06-.51.11-.95.26-1.29l.06-.17c.26-.86,1.04-1.65,2.02-2.03.3-.13.73-.16,1.23-.21.93-.08,2.09-.19,3.19-.98,1.99-1.41,2.8-3.82,2.07-6.15-.4-1.26-1.17-2.27-2.18-2.95,1.52-.97,2.52-2.65,2.52-4.56s-1.01-3.6-2.53-4.57c.03-.02.05-.03.08-.05,1.81-1.21,2.7-3.29,2.33-5.45-.38-2.19-1.95-3.89-4.11-4.42l-.14-.03c-.39-.07-.79-.1-1.2-.13-.25-.02-.5-.04-.77-.07l-.07-.02c-.44-.15-.95-.31-1.24-.54-.79-.58-1.31-1.44-1.46-2.44-.03-.19-.03-.37-.04-.56-.01-.47-.03-1.05-.23-1.72l-.12-.32c-.55-1.1-1.22-1.91-2.04-2.46-2-1.33-4.63-1.25-6.42.19-.49.38-.9.82-1.22,1.3-.97-1.48-2.65-2.46-4.55-2.46s-3.58.97-4.59,2.42c-1-1.46-2.7-2.42-4.62-2.42s-3.58.98-4.55,2.46c-.97-1.48-2.65-2.46-4.55-2.46s-3.58.98-4.55,2.46c-.97-1.48-2.65-2.46-4.55-2.46-3.01,0-5.55,2.49-5.55,5.44,0,1.85,1.01,3.55,2.49,4.58-1.5,1-2.49,2.7-2.49,4.63s1.03,3.57,2.55,4.55c-1.52.98-2.55,2.67-2.55,4.55s1.03,3.57,2.55,4.55c-1.52.98-2.55,2.67-2.55,4.55s1.01,3.55,2.49,4.58c-1.5,1-2.49,2.7-2.49,4.63s1.03,3.57,2.55,4.55c-1.52.98-2.55,2.67-2.55,4.55s1.03,3.57,2.55,4.55c-1.52.98-2.55,2.67-2.55,4.55s1.01,3.55,2.49,4.58c-1.5,1-2.49,2.7-2.49,4.63s1.03,3.57,2.55,4.55c-1.52.98-2.55,2.67-2.55,4.55,0,2.95,2.54,5.45,5.55,5.45s5.44-2.44,5.44-5.45c0-1.9-.98-3.58-2.46-4.55,1.48-.97,2.46-2.65,2.46-4.55s-.96-3.62-2.42-4.62c1.45-1.01,2.42-2.71,2.42-4.59s-.98-3.58-2.46-4.55c1.48-.97,2.46-2.65,2.46-4.55s-.98-3.58-2.46-4.55c.62-.41,1.15-.94,1.56-1.56.47.73,1.12,1.35,1.92,1.79,1.02.56,2.04.64,2.86.7.46.04.87.07,1.22.17.84.37,1.56,1.1,1.94,2,.13.29.18.77.23,1.28.08.81.18,1.82.73,2.83,1.04,1.78,2.81,2.77,4.9,2.77h0c1.93.07,3.5,1.71,3.5,3.66,0,2.08,1.26,4.06,3.2,5.03l.24.1c.62.21,1.15.27,1.62.33.17.02.34.04.52.07l.3.02c.43,0,.92.13,1.32.32.86.47,1.48,1.22,1.76,2.11l.04.12c.13.34.18.74.23,1.2.11.92.25,2.16,1.22,3.3.63.93,1.62,1.41,2.32,1.69l.18.06c.55.16,1.04.2,1.42.23.25.02.46.04.58.08l.3.07c.94.15,1.82.65,2.29,1.33l.07.09c.27.33.45.7.5,1.02l.07.28c.08.24.12.62.16.98.03.28.06.56.1.8.33,2.14,1.95,3.85,4.09,4.34.44.11.89.17,1.33.17,1.63,0,3.2-.77,4.28-2.18,1.39-1.8,1.58-4.11.5-6.03l-.03-.05ZM662.34,36.51c-1.88,0-3.54.98-4.52,2.46-.12-.19-.26-.39-.41-.57l-.07-.08c-1.44-1.6-3.68-2.18-5.9-1.49-1.17.4-2.12,1.17-2.75,2.18-.4-.62-.92-1.15-1.52-1.56,1.45-1.01,2.42-2.71,2.42-4.59s-.98-3.58-2.46-4.55c1.48-.97,2.46-2.65,2.46-4.55s-.98-3.58-2.46-4.55c1.48-.97,2.46-2.65,2.46-4.55s-.96-3.62-2.42-4.62c.6-.42,1.13-.96,1.53-1.58.98,1.52,2.67,2.55,4.55,2.55s3.57-1.03,4.55-2.55c.98,1.52,2.67,2.55,4.55,2.55s3.64-.99,4.63-2.49c1.02,1.48,2.73,2.49,4.58,2.49s3.56-1.02,4.54-2.54c.98,1.57,2.66,2.54,4.56,2.54s3.51,1.47,3.66,3.36c.12,1.53.5,3.45,2.48,4.83-1.49.97-2.48,2.66-2.48,4.57s.99,3.59,2.48,4.56c-.88.58-1.6,1.42-2.02,2.44-.29.73-.46,1.62-.46,2.43,0,.43-.13.92-.36,1.38-.42.84-1.21,1.52-2.12,1.82-.32.11-.71.15-1.17.2-.95.1-2.14.22-3.31,1.08-.5.38-.91.84-1.24,1.36-.97-1.51-2.65-2.51-4.55-2.51s-3.59.96-4.59,2.43c-.99-1.48-2.67-2.43-4.62-2.43Z"/>
  <path d="M709.54,8.49c.97,1.51,2.65,2.51,4.55,2.51s3.6-.98,4.56-2.48c.98,1.5,2.65,2.48,4.54,2.48s3.61-.94,4.6-2.41c.99,1.46,2.67,2.41,4.6,2.41s3.58-1,4.55-2.51c.97,1.51,2.65,2.51,4.55,2.51,3.05,0,5.44-2.44,5.44-5.55s-2.39-5.44-5.44-5.44c-1.9,0-3.58.98-4.55,2.46-.97-1.48-2.65-2.46-4.55-2.46s-3.6.95-4.6,2.4c-1-1.45-2.69-2.4-4.6-2.4s-3.56.97-4.54,2.44c-.96-1.48-2.63-2.44-4.56-2.44s-3.58.98-4.55,2.46c-.97-1.48-2.65-2.46-4.55-2.46-3.06,0-5.55,2.44-5.55,5.44,0,1.94.94,3.61,2.41,4.6-1.46.99-2.41,2.67-2.41,4.6s.99,3.56,2.48,4.54c-1.51.96-2.48,2.63-2.48,4.56s1,3.57,2.51,4.55c-1.51.97-2.51,2.65-2.51,4.55s.94,3.61,2.41,4.6c-1.46.99-2.41,2.67-2.41,4.6s.99,3.56,2.48,4.54c-1.51.96-2.48,2.63-2.48,4.56s1,3.57,2.51,4.55c-1.51.97-2.51,2.65-2.51,4.55s.94,3.61,2.41,4.6c-1.46.99-2.41,2.67-2.41,4.6s.99,3.56,2.48,4.54c-1.51.96-2.48,2.63-2.48,4.56,0,3,2.49,5.45,5.55,5.45,1.9,0,3.58-.98,4.55-2.46.97,1.48,2.65,2.46,4.55,2.46s3.6-.96,4.56-2.44c.98,1.47,2.65,2.44,4.54,2.44s3.6-.95,4.6-2.4c1,1.45,2.69,2.4,4.6,2.4s3.58-.98,4.55-2.46c.97,1.48,2.65,2.46,4.55,2.46,3.05,0,5.44-2.39,5.44-5.45s-2.34-5.44-5.44-5.44c-1.92,0-3.58.95-4.55,2.41-.97-1.47-2.63-2.41-4.55-2.41s-3.61.93-4.6,2.36c-.99-1.43-2.67-2.36-4.6-2.36s-3.57.94-4.54,2.39c-.96-1.46-2.61-2.39-4.56-2.39s-3.58.95-4.55,2.41c-.4-.61-.93-1.13-1.54-1.53,1.47-.98,2.44-2.65,2.44-4.54s-.95-3.6-2.4-4.6c1.45-1,2.4-2.69,2.4-4.6s-.98-3.58-2.46-4.55c1.48-.97,2.46-2.65,2.46-4.55s-.96-3.6-2.44-4.56c.61-.41,1.14-.93,1.54-1.55.97,1.48,2.65,2.46,4.55,2.46s3.6-.96,4.56-2.44c.98,1.47,2.65,2.44,4.54,2.44s3.6-.95,4.6-2.4c1,1.45,2.69,2.4,4.6,2.4,3,0,5.45-2.44,5.45-5.44s-2.44-5.55-5.45-5.55c-1.94,0-3.61.94-4.6,2.41-.99-1.46-2.67-2.41-4.6-2.41s-3.56.99-4.54,2.48c-.96-1.51-2.63-2.48-4.56-2.48s-3.58,1-4.55,2.51c-.4-.61-.91-1.14-1.51-1.56,1.45-1,2.4-2.69,2.4-4.6s-.98-3.58-2.46-4.55c1.48-.97,2.46-2.65,2.46-4.55s-.96-3.6-2.44-4.56c1.47-.98,2.44-2.65,2.44-4.54s-.95-3.61-2.4-4.6c.6-.41,1.11-.94,1.51-1.56Z"/>
  <path d="M817,58.78c-.59-2.13-2.29-3.64-4.38-3.94-.38-.06-.73-.08-1.03-.08-.28,0-.53-.02-.67-.06-.61-.21-1.13-.45-1.41-.68-.75-.6-1.27-1.5-1.42-2.49-.03-.15-.03-.31-.04-.46-.03-.49-.06-1.15-.38-1.87-.35-1.09-1.01-1.95-1.98-2.6-.01,0-.02-.02-.03-.02.17-.12.34-.24.5-.38,1.63-1.39,2.26-3.56,1.65-5.67-.61-2.09-2.31-3.58-4.34-3.87-.35-.07-.7-.11-1.06-.14-.2-.02-.4-.04-.62-.07l-.08-.03c-.45-.15-.95-.31-1.25-.55-.79-.58-1.31-1.44-1.46-2.44-.03-.19-.03-.37-.04-.56-.01-.47-.03-1.05-.25-1.8-.34-1.03-1-1.88-1.97-2.54-.1-.08-.21-.16-.32-.23.18-.12.35-.25.51-.39,1.69-1.38,2.37-3.55,1.78-5.67-.59-2.11-2.29-3.61-4.39-3.91-.38-.06-.75-.1-1.13-.13-.23-.02-.46-.04-.7-.07-.44-.16-.89-.39-1.33-.68-.71-.59-1.17-1.44-1.23-2.28l-.02-.16c-.03-.19-.05-.39-.07-.6-.05-.53-.12-1.14-.32-1.76l-.1-.24c-.45-.89-1.06-1.65-1.81-2.25l-.16-.11s-.02-.01-.03-.02c1.44-1.01,2.41-2.71,2.41-4.58,0-3-2.44-5.44-5.44-5.44s-5.55,2.49-5.55,5.44c0,1.84,1.01,3.54,2.48,4.57-1.97,1.36-2.36,3.29-2.48,4.83v.14c0,.75-.42,1.61-1.15,2.36-.75.58-1.55.88-2.59.96-2.18.03-4.09,1.28-4.87,3.14-.92,1.99-.53,4.34.99,5.98.31.33.65.62,1.01.86-.87.57-1.58,1.39-2,2.37-.36.75-.4,1.46-.43,1.97,0,.15-.01.31-.04.5-.09.6-.26,1.18-.45,1.57-.4.74-1.21,1.34-2.31,1.68-.27.1-.62.14-1.03.18-.85.1-2.02.23-3.19,1.08-1.7,1.31-2.46,3.53-1.93,5.67.34,1.39,1.16,2.53,2.25,3.26-.86.55-1.54,1.33-1.96,2.29-.46.96-.49,1.77-.49,2.48-.09.56-.25,1.09-.44,1.46-.46.85-1.21,1.49-2.04,1.77-.32.11-.7.15-1.14.2-.92.1-2.06.22-3.16,1.02-1.75,1.22-2.6,3.31-2.21,5.46.27,1.5,1.08,2.77,2.27,3.59-1.49,1-2.48,2.7-2.48,4.62s1.03,3.57,2.55,4.55c-1.52.98-2.55,2.67-2.55,4.55,0,2.95,2.54,5.45,5.55,5.45s5.44-2.44,5.44-5.45c0-1.9-.98-3.58-2.46-4.55,1.48-.97,2.46-2.65,2.46-4.55s-.97-3.63-2.43-4.63c.48-.34.91-.75,1.27-1.25.09-.12.18-.23.26-.35.98,1.54,2.68,2.57,4.57,2.57s3.57-1.03,4.55-2.55c.98,1.52,2.67,2.55,4.55,2.55s3.64-.99,4.63-2.49c1.02,1.48,2.73,2.49,4.58,2.49s3.57-1.03,4.55-2.55c.98,1.52,2.67,2.55,4.55,2.55s3.57-1.03,4.55-2.55c.98,1.52,2.67,2.55,4.55,2.55s3.62-.98,4.61-2.47c.4.58.92,1.09,1.53,1.49-1.5,1-2.49,2.7-2.49,4.63s1.03,3.57,2.55,4.55c-1.52.98-2.55,2.67-2.55,4.55,0,2.95,2.54,5.45,5.55,5.45s5.44-2.44,5.44-5.45c0-1.9-.98-3.58-2.46-4.55,1.48-.97,2.46-2.65,2.46-4.55s-.96-3.62-2.42-4.61c.15-.1.29-.21.43-.33,1.69-1.39,2.38-3.59,1.77-5.74ZM797.32,52.3c.31,1.45,1.13,2.65,2.25,3.42-.62.41-1.15.94-1.55,1.56-.97-1.48-2.65-2.46-4.55-2.46s-3.58.98-4.55,2.46c-.97-1.48-2.65-2.46-4.55-2.46s-3.58.97-4.59,2.42c-1-1.46-2.7-2.42-4.62-2.42s-3.58.98-4.55,2.46c-.41-.62-.94-1.15-1.56-1.56.05-.04.11-.07.16-.11,1.95-1.37,2.74-3.74,2.02-6.05-.4-1.26-1.17-2.29-2.19-2.96.59-.38,1.12-.88,1.56-1.49l.06-.09c.65-1.03.78-2.08.88-2.93.06-.51.11-.95.26-1.29l.06-.17c.26-.86,1.04-1.65,1.98-2.01.35-.13.79-.18,1.3-.23.99-.1,2.23-.22,3.42-1.11l.04-.03c1.84-1.46,2.52-3.87,1.73-6.14-.41-1.18-1.17-2.15-2.14-2.79,1.34-.84,2.24-2.24,2.5-3.95l.02-.14c.1-1.29.18-2,.69-2.71.96-1.18,2.59-1.7,3.95-1.27h.05c1.52.45,2.62,1.92,2.62,3.52,0,1.87.92,3.54,2.45,4.53-1.83,1.2-2.72,3.36-2.29,5.61.45,2.36,2.21,4.08,4.48,4.38.26.04.51.06.76.09.42.04.74.08,1.08.19.61.17,1.05.39,1.29.63l.06.06c.84.76,1.27,1.71,1.27,2.81,0,1.85.96,3.52,2.55,4.52-1.91,1.22-2.83,3.45-2.35,5.72Z"/>
  <path d="M878.28,14.65c0-1.95-.95-3.63-2.43-4.62,1.47-1,2.43-2.68,2.43-4.59,0-3-2.49-5.44-5.55-5.44s-5.44,2.44-5.44,5.44c0,1.88.97,3.58,2.42,4.59-1.46,1-2.42,2.7-2.42,4.62s.98,3.57,2.46,4.55c-1.48.97-2.46,2.65-2.46,4.55s.98,3.57,2.46,4.55c-1.48.97-2.46,2.65-2.46,4.55s.97,3.58,2.42,4.59c-1.46,1-2.42,2.7-2.42,4.62s.98,3.57,2.46,4.55c-1.48.97-2.46,2.65-2.46,4.55s.98,3.57,2.46,4.55c-1.48.97-2.46,2.65-2.46,4.55s.97,3.58,2.43,4.59c-.86.58-1.55,1.41-1.97,2.4-.3.75-.46,1.63-.46,2.54,0,.38-.1.75-.36,1.39-.44.76-1.25,1.41-2.11,1.7-.34.11-.74.15-1.2.19-.87.08-1.95.18-3.1.92-.6.42-1.09.93-1.46,1.52-.98-1.44-2.64-2.39-4.51-2.39s-3.58.97-4.59,2.42c-1-1.46-2.7-2.42-4.62-2.42s-3.59.99-4.57,2.48c-.98-1.54-2.63-2.48-4.46-2.48h0c-1.98-.08-3.65-1.7-3.72-3.55,0-2-.84-3.66-2.41-4.74,1.44-1.01,2.41-2.7,2.41-4.58s-.98-3.58-2.46-4.55c1.48-.97,2.46-2.65,2.46-4.55s-.98-3.58-2.46-4.55c1.48-.97,2.46-2.65,2.46-4.55s-.96-3.62-2.42-4.62c1.45-1.01,2.42-2.71,2.42-4.59s-.98-3.58-2.46-4.55c1.48-.97,2.46-2.65,2.46-4.55s-.98-3.58-2.46-4.55c1.48-.97,2.46-2.65,2.46-4.55s-.96-3.62-2.42-4.62c1.45-1.01,2.42-2.71,2.42-4.59,0-3-2.44-5.44-5.45-5.44s-5.55,2.49-5.55,5.44c0,1.85,1.01,3.55,2.49,4.58-1.5,1-2.49,2.7-2.49,4.63s1.03,3.57,2.55,4.55c-1.52.98-2.55,2.67-2.55,4.55s1.03,3.57,2.55,4.55c-1.52.98-2.55,2.67-2.55,4.55s1.01,3.55,2.49,4.58c-1.5,1-2.49,2.7-2.49,4.63s1.03,3.57,2.55,4.55c-1.52.98-2.55,2.67-2.55,4.55s1.03,3.57,2.55,4.55c-1.52.98-2.55,2.67-2.55,4.55s1.03,3.58,2.52,4.59c-.08.06-.17.12-.25.18-1.75,1.3-2.53,3.45-2.03,5.61.5,2.15,2.11,3.73,4.25,4.13.38.06.76.1,1.14.13.24.02.49.04.73.07.49.15.9.36,1.23.63l.16.12c.72.46,1.22,1.28,1.37,2.27.03.16.03.31.04.47.03.5.06,1.19.38,1.96.38,1.08,1.09,2.01,2.01,2.62,1.99,1.33,4.62,1.25,6.4-.18.5-.37.92-.81,1.25-1.3.98,1.47,2.65,2.45,4.54,2.45s3.62-.96,4.62-2.42c1.01,1.45,2.71,2.42,4.59,2.42s3.58-.98,4.55-2.46c.74,1.17,1.89,2,3.26,2.3,2.08.48,4.36-.31,5.73-2.02.82-1.13.95-2.3,1.04-3.15.04-.41.08-.76.18-1.03l.04-.12c.3-1.04.94-1.82,1.86-2.24l.1-.05c.38-.2.89-.27,1.49-.34.89-.11,2-.25,3.04-.95,2.01-1.34,2.85-3.73,2.13-6.08-.38-1.25-1.15-2.29-2.15-2.99,1.49-1,2.47-2.7,2.47-4.62s-1-3.58-2.51-4.55c1.51-.97,2.51-2.65,2.51-4.55s-1-3.58-2.51-4.55c1.51-.97,2.51-2.65,2.51-4.55s-.95-3.63-2.43-4.62c1.46-1,2.43-2.69,2.43-4.59s-1-3.58-2.51-4.55c1.51-.97,2.51-2.65,2.51-4.55s-1-3.58-2.51-4.55c1.51-.97,2.51-2.65,2.51-4.55Z"/>
  <path d="M108.72,57.49c-.96-1.6-2.87-2.64-4.78-2.64h0c-1.96-.08-3.55-1.57-3.62-3.47-.17-2.16-.98-3.74-2.5-4.85l-.09-.06c-1.09-.69-2.25-.79-3.18-.88-.46-.04-.89-.08-1.22-.18-.96-.43-1.57-1.31-1.93-2-.13-.34-.18-.8-.24-1.28,0-.07-.02-.15-.03-.22,0-.05.01-.09.01-.14.07-1.03.48-1.89,1.22-2.57.75-.59,1.64-.88,2.65-.88h.14c2.08-.17,3.88-1.45,4.7-3.37.36-.76.4-1.5.43-2.05,0-.17.01-.33.05-.53.08-.55.22-.93.48-1.33l.08-.14c.43-.78,1.21-1.39,2.04-1.6.26-.04.5-.06.74-.08.35-.03.69-.06,1.02-.12,1.03-.15,2-.57,2.86-1.26l.08-.07c1.6-1.44,2.18-3.68,1.49-5.9-.7-2.02-2.5-3.4-4.71-3.59-2.21-.2-4.24.86-5.31,2.77-.56,1.02-.64,2.04-.7,2.86-.04.46-.07.87-.17,1.22-.37.84-1.1,1.56-2,1.93-.29.13-.77.18-1.28.23-.81.08-1.82.18-2.83.73-1.79,1.04-2.77,2.81-2.77,4.91-.07,1.93-1.71,3.5-3.66,3.5-.22,0-.44.02-.66.05-.84-.15-1.56-.52-2.15-1.16-.59-.75-.88-1.64-.88-2.65v-.14c-.17-2.08-1.45-3.88-3.37-4.7-.76-.36-1.5-.4-2.05-.43-.17,0-.33-.01-.53-.05-.55-.08-.93-.22-1.33-.48l-.14-.08c-.78-.43-1.39-1.21-1.6-2.04-.04-.26-.06-.5-.08-.74-.03-.35-.06-.69-.12-1.02-.15-1.03-.57-2-1.26-2.86l-.07-.08c-1.44-1.6-3.68-2.18-5.9-1.49-2.02.7-3.4,2.5-3.59,4.71-.2,2.21.86,4.24,2.77,5.31,1.02.56,2.04.64,2.86.7.46.04.87.07,1.22.17.84.37,1.56,1.1,1.94,2,.13.29.18.77.23,1.28.08.81.18,1.82.73,2.83,1.04,1.78,2.81,2.77,4.9,2.77h0c1.93.07,3.5,1.71,3.5,3.66,0,.13.02.25.03.38,0,.42-.13.88-.32,1.27-.47.86-1.22,1.49-2.11,1.76l-.12.04c-.34.13-.74.18-1.2.23-.92.11-2.16.25-3.3,1.22-.94.63-1.41,1.62-1.69,2.32l-.06.18c-.16.55-.2,1.04-.23,1.42-.02.25-.04.46-.08.58l-.07.3c-.14.94-.65,1.82-1.32,2.29l-.1.07c-.33.26-.7.45-1.02.5l-.28.07c-.24.08-.62.12-.98.16-.28.03-.56.06-.8.1-2.14.33-3.85,1.95-4.34,4.09-.54,2.09.23,4.23,2.01,5.61,1.03.79,2.22,1.19,3.41,1.19.9,0,1.79-.23,2.62-.69l.05-.03c1.6-.96,2.64-2.87,2.64-4.79.08-1.96,1.57-3.55,3.47-3.62,2.16-.17,3.74-.98,4.85-2.5l.06-.09c.69-1.09.79-2.25.88-3.18.04-.46.08-.89.18-1.22.43-.96,1.31-1.57,2-1.93.32-.12.74-.17,1.19-.22.08.01.16.02.24.03l.3.02c.43,0,.92.13,1.32.32.86.47,1.49,1.22,1.76,2.11l.04.12c.13.34.18.74.23,1.2.11.92.25,2.16,1.22,3.3.63.94,1.62,1.41,2.32,1.69l.18.06c.55.16,1.04.2,1.42.23.25.02.46.04.58.08l.3.07c.94.14,1.82.65,2.29,1.32l.07.1c.26.33.45.7.5,1.02l.07.28c.08.24.12.62.16.98.03.28.06.56.1.8.33,2.14,1.95,3.85,4.09,4.34.44.11.89.17,1.32.17,1.64,0,3.2-.77,4.28-2.18,1.39-1.8,1.58-4.11.5-6.03l-.03-.05Z"/>
  <path d="M80.19,23.75c0,3,2.44,5.44,5.44,5.44s5.55-2.44,5.55-5.44c0-1.93-.98-3.6-2.48-4.56,1.5-.98,2.48-2.65,2.48-4.54s-.94-3.61-2.41-4.6c1.46-.99,2.41-2.67,2.41-4.6,0-3-2.49-5.44-5.55-5.44s-5.44,2.44-5.44,5.44c0,1.91.95,3.6,2.4,4.6-1.45,1-2.4,2.69-2.4,4.6s.97,3.56,2.44,4.54c-1.48.96-2.44,2.63-2.44,4.56Z"/>
  <path d="M91.19,60.26c0-3-2.49-5.44-5.55-5.44s-5.44,2.44-5.44,5.44c0,1.91.95,3.61,2.4,4.6-1.45,1-2.4,2.69-2.4,4.6s.97,3.56,2.44,4.54c-1.48.96-2.44,2.63-2.44,4.56,0,3,2.44,5.45,5.44,5.45s5.55-2.44,5.55-5.45c0-1.93-.98-3.6-2.48-4.56,1.5-.98,2.48-2.65,2.48-4.54s-.94-3.61-2.41-4.6c1.46-.99,2.41-2.67,2.41-4.6Z"/>
  <path d="M612.97,57.49c-.96-1.6-2.87-2.64-4.78-2.64h0c-1.96-.08-3.55-1.57-3.62-3.47-.17-2.16-.98-3.74-2.5-4.85l-.09-.06c-1.09-.69-2.25-.79-3.18-.88-.46-.04-.89-.08-1.22-.18-.96-.43-1.57-1.31-1.93-2-.13-.34-.18-.8-.24-1.28,0-.07-.02-.15-.03-.22,0-.05.01-.09.01-.14.07-1.03.48-1.89,1.22-2.57.75-.59,1.64-.88,2.65-.88h.14c2.08-.17,3.88-1.45,4.7-3.37.36-.76.4-1.5.43-2.05,0-.17.01-.33.05-.53.08-.55.22-.93.48-1.33l.08-.14c.43-.78,1.21-1.39,2.04-1.6.26-.04.5-.06.74-.08.35-.03.69-.06,1.02-.12,1.03-.15,2-.57,2.86-1.26l.08-.07c1.6-1.44,2.18-3.68,1.49-5.9-.7-2.02-2.5-3.4-4.71-3.59-2.21-.2-4.24.86-5.31,2.77-.56,1.02-.64,2.04-.7,2.86-.04.46-.07.87-.17,1.22-.37.84-1.1,1.56-2,1.93-.29.13-.77.18-1.28.23-.81.08-1.82.18-2.83.73-1.79,1.04-2.77,2.81-2.77,4.91-.07,1.93-1.71,3.5-3.66,3.5-.22,0-.44.02-.66.05-.84-.15-1.56-.52-2.15-1.16-.59-.75-.88-1.64-.88-2.65v-.14c-.17-2.08-1.45-3.88-3.37-4.7-.76-.36-1.5-.4-2.05-.43-.17,0-.33-.01-.53-.05-.55-.08-.93-.22-1.33-.48l-.14-.08c-.78-.43-1.39-1.21-1.6-2.04-.04-.26-.06-.5-.08-.74-.03-.35-.06-.69-.12-1.02-.15-1.03-.57-2-1.26-2.86l-.07-.08c-1.44-1.6-3.68-2.18-5.9-1.49-2.02.7-3.4,2.5-3.59,4.71-.2,2.21.86,4.24,2.77,5.31,1.02.56,2.04.64,2.86.7.46.04.87.07,1.22.17.84.37,1.56,1.1,1.94,2,.13.29.18.77.23,1.28.08.81.18,1.82.73,2.83,1.04,1.78,2.81,2.77,4.9,2.77h0c1.93.07,3.5,1.71,3.5,3.66,0,.13.02.25.03.38,0,.42-.13.88-.32,1.27-.47.86-1.22,1.49-2.11,1.76l-.12.04c-.34.13-.74.18-1.2.23-.92.11-2.16.25-3.3,1.22-.94.63-1.41,1.62-1.69,2.32l-.06.18c-.16.55-.2,1.04-.23,1.42-.02.25-.04.46-.08.58l-.07.3c-.14.94-.65,1.82-1.32,2.29l-.1.07c-.33.26-.7.45-1.02.5l-.28.07c-.24.08-.62.12-.98.16-.28.03-.56.06-.8.1-2.14.33-3.85,1.95-4.34,4.09-.54,2.09.23,4.23,2.01,5.61,1.03.79,2.22,1.19,3.41,1.19.9,0,1.79-.23,2.62-.69l.05-.03c1.6-.96,2.64-2.87,2.64-4.79.08-1.96,1.57-3.55,3.47-3.62,2.16-.17,3.74-.98,4.85-2.5l.06-.09c.69-1.09.79-2.25.88-3.18.04-.46.08-.89.18-1.22.43-.96,1.31-1.57,2-1.93.32-.12.74-.17,1.19-.22.08.01.16.02.24.03l.3.02c.43,0,.92.13,1.32.32.86.47,1.49,1.22,1.76,2.11l.04.12c.13.34.18.74.23,1.2.11.92.25,2.16,1.22,3.3.63.94,1.62,1.41,2.32,1.69l.18.06c.55.16,1.04.2,1.42.23.25.02.46.04.58.08l.3.07c.94.14,1.82.65,2.29,1.32l.07.1c.26.33.45.7.5,1.02l.07.28c.08.24.12.62.16.98.03.28.06.56.1.8.33,2.14,1.95,3.85,4.09,4.34.44.11.89.17,1.32.17,1.64,0,3.2-.77,4.28-2.18,1.39-1.8,1.58-4.11.5-6.03l-.03-.05Z"/>
  <path d="M584.43,23.75c0,3,2.44,5.44,5.44,5.44s5.55-2.44,5.55-5.44c0-1.93-.98-3.6-2.48-4.56,1.5-.98,2.48-2.65,2.48-4.54s-.94-3.61-2.41-4.6c1.46-.99,2.41-2.67,2.41-4.6,0-3-2.49-5.44-5.55-5.44s-5.44,2.44-5.44,5.44c0,1.91.95,3.6,2.4,4.6-1.45,1-2.4,2.69-2.4,4.6s.97,3.56,2.44,4.54c-1.48.96-2.44,2.63-2.44,4.56Z"/>
  <path d="M595.43,60.26c0-3-2.49-5.44-5.55-5.44s-5.44,2.44-5.44,5.44c0,1.91.95,3.61,2.4,4.6-1.45,1-2.4,2.69-2.4,4.6s.97,3.56,2.44,4.54c-1.48.96-2.44,2.63-2.44,4.56,0,3,2.44,5.45,5.44,5.45s5.55-2.44,5.55-5.45c0-1.93-.98-3.6-2.48-4.56,1.5-.98,2.48-2.65,2.48-4.54s-.94-3.61-2.41-4.6c1.46-.99,2.41-2.67,2.41-4.6Z"/>
</svg>