<?xml version="1.0" encoding="UTF-8"?>
<svg id="Layer_1" xmlns="http://www.w3.org/2000/svg" version="1.1" viewBox="0 0 16.9 29.9">
  <!-- Generator: Adobe Illustrator 30.1.0, SVG Export Plug-In . SVG Version: 2.1.1 Build 136)  -->
  <path d="M16.65,20.46c-.34-.57-1.02-.94-1.7-.94h0c-.7-.03-1.26-.56-1.29-1.23-.06-.77-.35-1.33-.89-1.72l-.03-.02c-.39-.25-.8-.28-1.13-.31-.16-.01-.32-.03-.43-.06-.34-.15-.56-.46-.69-.71-.05-.12-.06-.28-.08-.46v-.13c.03-.36.17-.67.44-.92.27-.21.58-.31.94-.31h.05c.74-.06,1.38-.52,1.67-1.2.13-.27.14-.54.15-.73,0-.06,0-.12.02-.19.03-.2.08-.33.17-.47l.03-.05c.15-.28.43-.5.73-.57.09-.01.18-.02.26-.03.12-.01.25-.02.36-.04.37-.05.71-.2,1.02-.45l.03-.02c.57-.51.77-1.31.53-2.1-.25-.72-.89-1.21-1.68-1.28s-1.51.31-1.89.99c-.2.36-.23.73-.25,1.02-.01.17-.02.31-.06.43-.13.3-.39.55-.71.69-.1.05-.28.06-.46.08-.29.03-.65.06-1.01.26-.64.37-.99,1-.98,1.75-.03.69-.61,1.25-1.3,1.27-.09,0-.14.01-.23,0-.3-.05-.56-.19-.76-.41-.21-.27-.31-.58-.31-.94v-.05c-.06-.74-.52-1.38-1.2-1.67-.27-.13-.54-.14-.73-.15-.06,0-.12,0-.19-.02-.2-.03-.33-.08-.47-.17l-.05-.03c-.28-.15-.5-.43-.57-.73,0-.09-.02-.18-.03-.26,0-.12-.02-.25-.04-.36-.05-.37-.2-.71-.45-1.02l-.02-.03c-.51-.57-1.31-.78-2.1-.53-.72.25-1.21.89-1.28,1.68-.07.79.31,1.51.99,1.89.36.2.73.23,1.02.25.17.01.31.02.43.06.3.13.55.39.69.71.05.1.06.27.08.46.03.29.06.65.26,1.01.37.64,1,.99,1.75.98h0c.69.03,1.25.61,1.25,1.3v.13c0,.15-.05.31-.11.45-.17.31-.43.53-.75.63h-.04c-.12.06-.26.08-.43.1-.33.04-.77.09-1.18.43-.33.23-.5.58-.6.83l-.02.06c-.06.2-.07.37-.08.51,0,.09,0,.16-.03.21l-.03.11c-.05.34-.23.65-.47.81l-.03.03c-.12.09-.25.16-.36.18l-.1.02c-.09.03-.22.04-.35.06-.1.01-.2.02-.28.04-.76.12-1.37.7-1.54,1.46-.19.74.08,1.51.71,1.99.37.28.79.42,1.21.42.32,0,.64-.08.93-.25h.02c.57-.35.94-1.03.94-1.71.03-.7.56-1.26,1.23-1.29.77-.06,1.33-.35,1.72-.89l.02-.03c.25-.39.28-.8.31-1.13.01-.16.03-.32.06-.43.15-.34.46-.56.71-.69.11-.04.26-.06.42-.08.03,0,.06,0,.09.01h.11c.15,0,.33.05.47.12.31.17.53.43.63.75v.04c.06.12.08.26.1.43.04.33.09.77.43,1.18.23.33.58.5.83.6l.06.02c.2.06.37.07.51.08.09,0,.16.01.21.03l.11.03c.34.05.65.23.81.47l.03.03c.09.12.16.25.18.36l.02.1c.03.09.04.22.06.35.01.1.02.2.04.28.12.76.69,1.37,1.45,1.54.16.04.32.06.47.06.58,0,1.14-.28,1.52-.77.49-.64.56-1.46.18-2.15v-.02l-.05-.03Z"/>
  <path d="M6.49,8.45c0,1.07.87,1.94,1.94,1.94s1.98-.87,1.98-1.94c0-.69-.35-1.28-.88-1.62.53-.35.88-.94.88-1.61s-.34-1.29-.86-1.64c.52-.35.86-.95.86-1.64C10.41.87,9.52,0,8.43,0s-1.94.87-1.94,1.94c0,.68.34,1.28.85,1.64-.52.36-.85.96-.85,1.64s.34,1.27.87,1.61c-.53.34-.87.94-.87,1.62Z"/>
  <path d="M10.41,21.44c0-1.07-.89-1.94-1.98-1.94s-1.94.87-1.94,1.94c0,.68.34,1.28.86,1.64-.52.36-.86.96-.86,1.64s.34,1.27.87,1.61c-.53.34-.87.94-.87,1.62,0,1.07.87,1.94,1.94,1.94s1.98-.87,1.98-1.94c0-.69-.35-1.28-.88-1.62.53-.35.88-.94.88-1.61s-.34-1.29-.86-1.64c.52-.35.86-.95.86-1.64Z"/>
</svg>